{"title":"Stanley and Livingstone(1939)MPEG-4[DaScubaDude]","uid":15893375,"size":1010243600,"categoryP":"video","categoryS":"movies","magnet":"?xt=urn:btih:a287327c6e96bc4ce6660c0072644f342600c218&amp;dn=Stanley+and+Livingstone%281939%29MPEG-4%5BDaScubaDude%5D&amp;tr=udp%3A%2F%2Ftracker.leechers-paradise.org%3A6969&amp;tr=udp%3A%2F%2Fzer0day.ch%3A1337&amp;tr=udp%3A%2F%2Fopen.demonii.com%3A1337&amp;tr=udp%3A%2F%2Ftracker.coppersurfer.tk%3A6969&amp;tr=udp%3A%2F%2Fexodus.desync.com%3A6969","seeders":24,"leechers":4,"uploader":"dascuba","files":1,"time":1474773148,"description":"Stanley and Livingstone (1939)\r\nApproved | 1h 41min | Adventure, Drama, History | 18 August 1939 (USA)\r\nGeneral\r\nComplete name                            : Stanley n LivingstoneSTANLEY_AND_LIVINGSTONE_Title3.mp4\r\nFormat                                   : MPEG-4\r\nFormat profile                           : Base Media\r\nCodec ID                                 : isom (isom/iso2/avc1/mp41)\r\nFile size                                : 963 MiB\r\nDuration                                 : 1h 40mn\r\nOverall bit rate mode                    : Variable\r\nOverall bit rate                         : 1 339 Kbps\r\nMovie name                               : STANLEY_AND_LIVINGSTONE\r\nGenre                                    : Historical\r\nWriting application                      : Lavf54.6.100\r\n\r\nVideo\r\nID                                       : 1\r\nFormat                                   : AVC\r\nFormat/Info                              : Advanced Video Codec\r\nFormat profile                           :   \r\nFormat settings, CABAC                   : No\r\nFormat settings, ReFrames                : 6 frames\r\nFormat settings, GOP                     : M=1, N=60\r\nCodec ID                                 : avc1\r\nCodec ID/Info                            : Advanced Video Coding\r\nDuration                                 : 1h 40mn\r\nBit rate                                 : 1 204 Kbps\r\nWidth                                    : 720 pixels\r\nHeight                                   : 540 pixels\r\nDisplay aspect ratio                     : 4:3\r\nFrame rate mode                          : Constant\r\nFrame rate                               : 29.970 (30000/1001) fps\r\nColor space                              : YUV\r\nChroma subsampling                       : 4:2:0\r\nBit depth                                : 8 bits\r\nScan type                                : Progressive\r\nBits/(Pixel*Frame)                       : 0.103\r\nStream size                              : 866 MiB (90%)\r\n\r\nAudio\r\nID                                       : 2\r\nFormat                                   : AAC\r\nFormat/Info                              : Advanced Audio Codec\r\nFormat profile                           : LC\r\nCodec ID                                 : 40\r\nDuration                                 : 1h 40mn\r\nBit rate mode                            : Variable\r\nBit rate                                 : 128 Kbps\r\nMaximum bit rate                         : 131 Kbps\r\nChannel(s)                               : 2 channels\r\nChannel positions                        : Front: L R\r\nSampling rate                            : 44.1 KHz\r\nFrame rate                               : 43.066 fps (1024 spf)\r\nCompression mode                         : Lossy\r\nStream size                              : 92.1 MiB (10%)\r\nDefault                                  : Yes\r\nAlternate group                          : 1","torrent":{"xt":"urn:btih:a287327c6e96bc4ce6660c0072644f342600c218","amp;dn":"Stanley+and+Livingstone%281939%29MPEG-4%5BDaScubaDude%5D","amp;tr":["udp%3A%2F%2Ftracker.leechers-paradise.org%3A6969","udp%3A%2F%2Fzer0day.ch%3A1337","udp%3A%2F%2Fopen.demonii.com%3A1337","udp%3A%2F%2Ftracker.coppersurfer.tk%3A6969","udp%3A%2F%2Fexodus.desync.com%3A6969"],"infoHash":"a287327c6e96bc4ce6660c0072644f342600c218","infoHashBuffer":{"type":"Buffer","data":[162,135,50,124,110,150,188,76,230,102,12,0,114,100,79,52,38,0,194,24]},"announce":[],"urlList":[]}}